<svg width="24" height="24" viewBox="0 0 24 24" fill="none" xmlns="http://www.w3.org/2000/svg">
<g clip-path="url(#clip0)">
<path d="M12 22C17.5228 22 22 17.5228 22 12C22 6.47715 17.5228 2 12 2C6.47715 2 2 6.47715 2 12C2 17.5228 6.47715 22 12 22Z" fill="#F0F0F0"/>
<path d="M11.5652 11.9998H22C22 11.0972 21.8796 10.2229 21.6555 9.39111H11.5652V11.9998Z" fill="#D80027"/>
<path d="M11.5652 6.78254H20.5322C19.9201 5.78363 19.1374 4.9007 18.2248 4.17383H11.5652V6.78254Z" fill="#D80027"/>
<path d="M12 21.9998C14.3535 21.9998 16.5166 21.1864 18.2248 19.8259H5.77515C7.48335 21.1864 9.64651 21.9998 12 21.9998Z" fill="#D80027"/>
<path d="M3.46772 17.2174H20.5323C21.0237 16.4154 21.4048 15.5389 21.6555 14.6086H2.34448C2.59515 15.5389 2.97628 16.4154 3.46772 17.2174Z" fill="#D80027"/>
<path d="M6.63219 3.56164H7.54348L6.69582 4.17746L7.01961 5.17391L6.17199 4.55809L5.32437 5.17391L5.60406 4.31309C4.85773 4.93477 4.20359 5.66313 3.66453 6.47469H3.95652L3.41695 6.86668C3.33289 7.00691 3.25227 7.14937 3.175 7.29395L3.43266 8.08695L2.95195 7.7377C2.83246 7.99086 2.72316 8.24973 2.62492 8.51398L2.90879 9.38773H3.95652L3.10887 10.0036L3.43266 11L2.58504 10.3842L2.0773 10.7531C2.02648 11.1616 2 11.5777 2 12H12C12 6.47719 12 5.82609 12 2C10.0245 2 8.18301 2.57305 6.63219 3.56164ZM7.01961 11L6.17199 10.3842L5.32437 11L5.64816 10.0036L4.80051 9.38773H5.84824L6.17199 8.39129L6.49574 9.38773H7.54348L6.69582 10.0036L7.01961 11ZM6.69582 7.09051L7.01961 8.08695L6.17199 7.47113L5.32437 8.08695L5.64816 7.09051L4.80051 6.47469H5.84824L6.17199 5.47824L6.49574 6.47469H7.54348L6.69582 7.09051ZM10.6066 11L9.75895 10.3842L8.91133 11L9.23512 10.0036L8.38746 9.38773H9.4352L9.75895 8.39129L10.0827 9.38773H11.1304L10.2828 10.0036L10.6066 11ZM10.2828 7.09051L10.6066 8.08695L9.75895 7.47113L8.91133 8.08695L9.23512 7.09051L8.38746 6.47469H9.4352L9.75895 5.47824L10.0827 6.47469H11.1304L10.2828 7.09051ZM10.2828 4.17746L10.6066 5.17391L9.75895 4.55809L8.91133 5.17391L9.23512 4.17746L8.38746 3.56164H9.4352L9.75895 2.5652L10.0827 3.56164H11.1304L10.2828 4.17746Z" fill="#0052B4"/>
</g>
<defs>
<clipPath id="clip0">
<rect width="20" height="20" fill="white" transform="translate(2 2)"/>
</clipPath>
</defs>
</svg>
