<svg width="24" height="25" viewBox="0 0 24 25" fill="none" xmlns="http://www.w3.org/2000/svg">
<path d="M17.4444 11.5H6.55556C5.69645 11.5 5 12.22 5 13.1082V18.7367C5 19.6248 5.69645 20.3448 6.55556 20.3448H17.4444C18.3036 20.3448 19 19.6248 19 18.7367V13.1082C19 12.22 18.3036 11.5 17.4444 11.5Z" stroke="#1040BA" stroke-width="1.5" stroke-linecap="round" stroke-linejoin="round"/>
<path d="M8 11.5002V8.44269C8 7.42908 8.42143 6.45698 9.17157 5.74024C9.92172 5.02351 10.9391 4.62085 12 4.62085C13.0609 4.62085 14.0783 5.02351 14.8284 5.74024C15.5786 6.45698 16 7.42908 16 8.44269V11.5002" stroke="#1040BA" stroke-width="1.5" stroke-linecap="round" stroke-linejoin="round"/>
</svg>
