<svg width="24" height="24" viewBox="0 0 24 24" fill="none" xmlns="http://www.w3.org/2000/svg">
<path d="M17.4444 11H6.55556C5.69645 11 5 11.7326 5 12.6364V18.3636C5 19.2674 5.69645 20 6.55556 20H17.4444C18.3036 20 19 19.2674 19 18.3636V12.6364C19 11.7326 18.3036 11 17.4444 11Z" stroke="#7EC3BB" stroke-width="1.5" stroke-linecap="round" stroke-linejoin="round"/>
<path d="M8 11V7.88889C8 6.85749 8.42143 5.86834 9.17157 5.13903C9.92172 4.40972 10.9391 4 12 4C13.0609 4 14.0783 4.40972 14.8284 5.13903C15.5786 5.86834 16 6.85749 16 7.88889V11" stroke="#7EC3BB" stroke-width="1.5" stroke-linecap="round" stroke-linejoin="round"/>
</svg>
