<svg width="30" height="30" viewBox="0 0 30 30" fill="none" xmlns="http://www.w3.org/2000/svg">
<circle cx="15" cy="15" r="15" fill="#02ADFC"/>
<path d="M15 9H10.3333C9.97971 9 9.64057 9.14048 9.39052 9.39052C9.14048 9.64057 9 9.97971 9 10.3333V19.6667C9 20.0203 9.14048 20.3594 9.39052 20.6095C9.64057 20.8595 9.97971 21 10.3333 21H19.6667C20.0203 21 20.3594 20.8595 20.6095 20.6095C20.8595 20.3594 21 20.0203 21 19.6667V15" stroke="white" stroke-width="1.5" stroke-linecap="round" stroke-linejoin="round"/>
<path d="M19.692 8.39599C19.9456 8.14244 20.2894 8 20.648 8C21.0066 8 21.3505 8.14244 21.604 8.39599C21.8576 8.64954 22 8.99342 22 9.35199C22 9.71056 21.8576 10.0544 21.604 10.308L15.5493 16.3627L13 17L13.6373 14.4507L19.692 8.39599Z" stroke="white" stroke-width="1.5" stroke-linecap="round" stroke-linejoin="round"/>
</svg>
