<svg width="44" height="18" viewBox="0 0 44 18" fill="none" xmlns="http://www.w3.org/2000/svg">
<path d="M8.04384 2.32065C7.52821 2.92864 6.70321 3.40818 5.87821 3.33968C5.77509 2.5176 6.17899 1.64415 6.65165 1.10466C7.16727 0.479543 8.06962 0.0342531 8.80009 0C8.88602 0.856327 8.55087 1.69553 8.04384 2.32065ZM8.79149 3.50238C7.59696 3.43387 6.57431 4.17888 6.00712 4.17888C5.43134 4.17888 4.56337 3.53663 3.61805 3.55376C2.38915 3.57088 1.24618 4.26451 0.618836 5.36917C-0.670226 7.5785 0.28368 10.8497 1.52977 12.648C2.13993 13.5385 2.8704 14.5147 3.8329 14.4805C4.74384 14.4462 5.10477 13.8896 6.20477 13.8896C7.31337 13.8896 7.63134 14.4805 8.59384 14.4634C9.59071 14.4462 10.2181 13.5728 10.8282 12.6822C11.5243 11.6717 11.8079 10.687 11.8251 10.6356C11.8079 10.6185 9.90009 9.89058 9.8829 7.69838C9.86571 5.86584 11.3868 4.99239 11.4556 4.94101C10.5962 3.67364 9.25556 3.53663 8.79149 3.50238ZM15.6923 1.01903V14.3692H17.772V9.80495H20.6509C23.2806 9.80495 25.1282 8.00666 25.1282 5.40343C25.1282 2.80019 23.3149 1.01903 20.7196 1.01903H15.6923ZM17.772 2.76594H20.1696C21.9743 2.76594 23.0056 3.72502 23.0056 5.41199C23.0056 7.09895 21.9743 8.0666 20.161 8.0666H17.772V2.76594ZM28.9266 14.4719C30.2329 14.4719 31.4446 13.8126 31.9946 12.7678H32.0376V14.3692H33.9626V7.72407C33.9626 5.79734 32.4157 4.55566 30.0352 4.55566C27.8266 4.55566 26.1938 5.81446 26.1337 7.54424H28.0071C28.1618 6.72217 28.9266 6.18268 29.9751 6.18268C31.247 6.18268 31.9602 6.77355 31.9602 7.86109V8.59753L29.3649 8.75167C26.9501 8.89724 25.6438 9.88202 25.6438 11.5947C25.6438 13.3245 26.9931 14.4719 28.9266 14.4719ZM29.4852 12.8877C28.3766 12.8877 27.672 12.3568 27.672 11.5433C27.672 10.7041 28.3509 10.216 29.6485 10.1389L31.9602 9.99334V10.7469C31.9602 11.9971 30.8946 12.8877 29.4852 12.8877ZM36.5321 18C38.5602 18 39.5141 17.2293 40.3477 14.8915L44.0001 4.68411H41.886L39.4368 12.5709H39.3938L36.9446 4.68411H34.7704L38.2938 14.4034L38.1048 14.9943C37.7868 15.9962 37.2712 16.3815 36.3517 16.3815C36.1884 16.3815 35.8704 16.3644 35.7415 16.3473V17.9486C35.8618 17.9829 36.3774 18 36.5321 18Z" fill="black"/>
</svg>
