<svg width="24" height="24" viewBox="0 0 24 24" fill="none" xmlns="http://www.w3.org/2000/svg">
<path d="M16.1667 19.5V17.8333C16.1667 16.9493 15.8155 16.1014 15.1904 15.4763C14.5653 14.8512 13.7174 14.5 12.8334 14.5H6.16671C5.28265 14.5 4.43481 14.8512 3.80968 15.4763C3.18456 16.1014 2.83337 16.9493 2.83337 17.8333V19.5" stroke="#7EC3BB" stroke-width="1.5" stroke-linecap="round" stroke-linejoin="round"/>
<path d="M9.49996 11.1667C11.3409 11.1667 12.8333 9.67428 12.8333 7.83333C12.8333 5.99238 11.3409 4.5 9.49996 4.5C7.65901 4.5 6.16663 5.99238 6.16663 7.83333C6.16663 9.67428 7.65901 11.1667 9.49996 11.1667Z" stroke="#7EC3BB" stroke-width="1.5" stroke-linecap="round" stroke-linejoin="round"/>
<path d="M21.1666 19.5001V17.8334C21.1661 17.0948 20.9203 16.3774 20.4678 15.7937C20.0153 15.2099 19.3817 14.793 18.6666 14.6084" stroke="#7EC3BB" stroke-width="1.5" stroke-linecap="round" stroke-linejoin="round"/>
<path d="M15.3334 4.6084C16.0504 4.79198 16.6859 5.20898 17.1397 5.79366C17.5936 6.37833 17.8399 7.09742 17.8399 7.83757C17.8399 8.57771 17.5936 9.2968 17.1397 9.88147C16.6859 10.4661 16.0504 10.8831 15.3334 11.0667" stroke="#7EC3BB" stroke-width="1.5" stroke-linecap="round" stroke-linejoin="round"/>
</svg>
