<svg width="24" height="24" viewBox="0 0 24 24" fill="none" xmlns="http://www.w3.org/2000/svg">
<path d="M20 4V9H15" stroke="#7EC3BB" stroke-width="2" stroke-linecap="round" stroke-linejoin="round"/>
<path d="M4 20V15H9" stroke="#7EC3BB" stroke-width="2" stroke-linecap="round" stroke-linejoin="round"/>
<path d="M4 9.33263C4.47762 8.05833 5.28935 6.91902 6.35947 6.02102C7.42959 5.12302 8.72321 4.4956 10.1196 4.19729C11.516 3.89898 12.9697 3.93952 14.3451 4.31511C15.7204 4.69071 16.9726 5.38912 17.9847 6.34518L20 8.88807M4 15.1119L6.00588 17.6548C7.01801 18.6109 8.27015 19.3093 9.64549 19.6849C11.0208 20.0605 12.4745 20.101 13.8709 19.8027C15.2674 19.5044 16.561 18.877 17.6311 17.979C18.7012 17.081 19.513 15.9417 19.9906 14.6674" stroke="#7EC3BB" stroke-width="2" stroke-linecap="round" stroke-linejoin="round"/>
</svg>
