<svg width="28" height="17" viewBox="0 0 28 17" fill="none" xmlns="http://www.w3.org/2000/svg">
<path d="M17.3135 1.81763H9.94299V15.1822H17.3135V1.81763Z" fill="#FF5F00"/>
<path d="M10.411 8.5023C10.4096 7.21502 10.6986 5.94429 11.256 4.78636C11.8134 3.62843 12.6246 2.61364 13.6283 1.81885C12.3856 0.833495 10.8933 0.220763 9.32181 0.0506813C7.75034 -0.119401 6.16314 0.160028 4.74163 0.857033C3.32011 1.55404 2.12162 2.6405 1.28314 3.99224C0.444652 5.34398 0 6.90647 0 8.50112C0 10.0958 0.444652 11.6583 1.28314 13.01C2.12162 14.3617 3.32011 15.4482 4.74163 16.1452C6.16314 16.8422 7.75034 17.1216 9.32181 16.9516C10.8933 16.7815 12.3856 16.1688 13.6283 15.1834C12.625 14.3889 11.8139 13.3744 11.2565 12.2169C10.6991 11.0595 10.41 9.78919 10.411 8.5023Z" fill="#EB001B"/>
<path d="M27.2578 8.50109C27.2578 10.0959 26.813 11.6584 25.9744 13.0102C25.1357 14.362 23.9371 15.4485 22.5154 16.1454C21.0937 16.8423 19.5063 17.1215 17.9348 16.9512C16.3632 16.7809 14.8709 16.1678 13.6283 15.1822C14.6312 14.3869 15.442 13.3722 15.9996 12.2147C16.5571 11.0571 16.8468 9.78691 16.8468 8.49991C16.8468 7.2129 16.5571 5.94269 15.9996 4.78513C15.442 3.62757 14.6312 2.61289 13.6283 1.81763C14.8709 0.831972 16.3632 0.218943 17.9348 0.0486166C19.5063 -0.12171 21.0937 0.15754 22.5154 0.854445C23.9371 1.55135 25.1357 2.63779 25.9744 3.98958C26.813 5.34136 27.2578 6.90395 27.2578 8.49873V8.50109Z" fill="#F79E1B"/>
</svg>
