<svg width="262" height="160" viewBox="0 0 262 160" fill="none" xmlns="http://www.w3.org/2000/svg">
<g filter="url(#filter0_d)">
<rect x="12" y="6" width="238" height="136" rx="8" fill="white"/>
</g>
<path d="M45.3135 23.8176H37.943V37.1822H45.3135V23.8176Z" fill="#FF5F00"/>
<path d="M38.411 30.5023C38.4096 29.215 38.6986 27.9443 39.256 26.7864C39.8134 25.6284 40.6246 24.6136 41.6283 23.8188C40.3856 22.8335 38.8933 22.2208 37.3218 22.0507C35.7503 21.8806 34.1631 22.16 32.7416 22.857C31.3201 23.554 30.1216 24.6405 29.2831 25.9922C28.4447 27.344 28 28.9065 28 30.5011C28 32.0958 28.4447 33.6583 29.2831 35.01C30.1216 36.3617 31.3201 37.4482 32.7416 38.1452C34.1631 38.8422 35.7503 39.1216 37.3218 38.9516C38.8933 38.7815 40.3856 38.1688 41.6283 37.1834C40.625 36.3889 39.8139 35.3744 39.2565 34.2169C38.6991 33.0595 38.41 31.7892 38.411 30.5023V30.5023Z" fill="#EB001B"/>
<path d="M55.2578 30.5011C55.2578 32.0959 54.813 33.6584 53.9744 35.0102C53.1357 36.362 51.9371 37.4485 50.5154 38.1454C49.0937 38.8423 47.5063 39.1215 45.9348 38.9512C44.3632 38.7809 42.8709 38.1678 41.6283 37.1822C42.6312 36.3869 43.442 35.3722 43.9996 34.2147C44.5571 33.0571 44.8468 31.7869 44.8468 30.4999C44.8468 29.2129 44.5571 27.9427 43.9996 26.7851C43.442 25.6276 42.6312 24.6129 41.6283 23.8176C42.8709 22.832 44.3632 22.2189 45.9348 22.0486C47.5063 21.8783 49.0937 22.1575 50.5154 22.8544C51.9371 23.5513 53.1357 24.6378 53.9744 25.9896C54.813 27.3414 55.2578 28.904 55.2578 30.4987V30.5011Z" fill="#F79E1B"/>
<path d="M34.3359 89H35.9922L36 87.2109C39.3516 86.9687 41.2734 85.125 41.2813 82.5078C41.2734 79.7344 38.9844 78.4687 36.5781 77.8984L36.0625 77.7656L36.0938 73.3047C37.3438 73.5234 38.1484 74.2734 38.2734 75.3984H41.0625C41.0156 72.9141 39.0625 71.1016 36.1094 70.8203L36.1172 69H34.4609L34.4531 70.8203C31.5234 71.1172 29.4141 72.9141 29.4219 75.5C29.4219 77.7969 31.0547 79.1172 33.6875 79.7969L34.3906 79.9766L34.3594 84.7031C32.9609 84.4844 31.9531 83.6875 31.8516 82.2734H29C29.1094 85.2031 31.125 86.9453 34.3438 87.2109L34.3359 89ZM36.0156 84.7031L36.0469 80.4141C37.4688 80.8281 38.375 81.375 38.3828 82.4844C38.375 83.6406 37.4453 84.4687 36.0156 84.7031ZM34.4063 77.3437C33.3281 77 32.3438 76.4297 32.3594 75.3203C32.3672 74.3125 33.125 73.5312 34.4375 73.3047L34.4063 77.3437ZM49.3965 87.2187C52.8574 87.2187 55.334 85.3125 55.3418 82.7109C55.334 80.7109 53.8574 79.0391 51.998 78.7266V78.6172C53.6152 78.2578 54.7402 76.8047 54.748 75.0703C54.7402 72.6094 52.4746 70.7812 49.3965 70.7812C46.2949 70.7812 44.0293 72.6016 44.0371 75.0703C44.0293 76.8047 45.1387 78.2578 46.7871 78.6172V78.7266C44.8965 79.0391 43.4355 80.7109 43.4434 82.7109C43.4355 85.3125 45.9043 87.2187 49.3965 87.2187ZM49.3965 84.9844C47.584 84.9844 46.4121 83.9844 46.4277 82.5078C46.4121 80.9766 47.6699 79.8906 49.3965 79.8906C51.0996 79.8906 52.3496 80.9844 52.3652 82.5078C52.3496 83.9844 51.1855 84.9844 49.3965 84.9844ZM49.3965 77.6953C47.9121 77.6953 46.8496 76.7344 46.8652 75.3437C46.8496 73.9687 47.8809 73.0469 49.3965 73.0469C50.8887 73.0469 51.9121 73.9687 51.9277 75.3437C51.9121 76.7422 50.8574 77.6953 49.3965 77.6953ZM63.4648 70.7812C59.9961 70.7578 57.6914 73.1406 57.6914 76.2656C57.6992 79.2812 59.8477 81.4609 62.6523 81.4609C64.3789 81.4609 65.8789 80.625 66.6523 79.25H66.7617C66.7539 82.6719 65.5117 84.7109 63.3008 84.7109C61.918 84.7109 60.9883 83.9141 60.6992 82.6406H57.8477C58.1758 85.2891 60.2695 87.2187 63.3008 87.2187C67.1367 87.2187 69.582 84.0156 69.5742 78.5078C69.5664 72.6797 66.5352 70.7969 63.4648 70.7812ZM63.4727 73.125C65.1836 73.125 66.4414 74.5469 66.4414 76.1797C66.4492 77.8359 65.1289 79.2578 63.4414 79.2578C61.7383 79.2578 60.5117 77.9141 60.5039 76.2031C60.5039 74.4844 61.7773 73.125 63.4727 73.125ZM72.1758 87H83.1445V84.5781H76.1758V84.4687L78.9336 81.6641C82.043 78.6797 82.9023 77.2266 82.9023 75.4219C82.9023 72.7422 80.7227 70.7812 77.5039 70.7812C74.332 70.7812 72.082 72.75 72.082 75.7891H74.8398C74.8398 74.1563 75.8711 73.1328 77.4648 73.1328C78.9883 73.1328 80.1211 74.0625 80.1211 75.5703C80.1211 76.9062 79.3086 77.8594 77.7305 79.4609L72.1758 84.9062V87ZM87.6133 87.1719C88.5352 87.1719 89.3242 86.4062 89.332 85.4531C89.3242 84.5156 88.5352 83.75 87.6133 83.75C86.6602 83.75 85.8867 84.5156 85.8945 85.4531C85.8867 86.4062 86.6602 87.1719 87.6133 87.1719ZM97.5898 87.2187C100.973 87.2187 103.332 84.9219 103.332 81.7422C103.332 78.6641 101.191 76.4453 98.2852 76.4453C96.9883 76.4453 95.8398 76.9609 95.2461 77.6641H95.1523L95.6133 73.4219H102.496V71H93.2148L92.3789 79.25L94.9961 79.6797C95.5352 79.0859 96.5508 78.6875 97.5117 78.6953C99.2695 78.7031 100.535 80 100.527 81.8125C100.535 83.6016 99.3008 84.875 97.5898 84.875C96.1445 84.875 94.9805 83.9609 94.8789 82.6484H92.0664C92.1445 85.3047 94.4648 87.2187 97.5898 87.2187ZM111.691 87.2187C115.113 87.2187 117.605 85.2578 117.598 82.5547C117.605 80.5547 116.355 79.1172 114.113 78.7969V78.6719C115.848 78.2969 117.012 77.0078 117.004 75.2109C117.012 72.7734 114.934 70.7812 111.738 70.7812C108.629 70.7812 106.223 72.6328 106.16 75.3125H108.949C108.996 73.9687 110.246 73.1328 111.723 73.1328C113.215 73.1328 114.207 74.0391 114.199 75.3828C114.207 76.7812 113.051 77.7109 111.395 77.7109H109.98V79.9453H111.395C113.418 79.9453 114.621 80.9609 114.613 82.4062C114.621 83.8203 113.395 84.7891 111.684 84.7891C110.074 84.7891 108.832 83.9531 108.762 82.6484H105.824C105.902 85.3516 108.316 87.2187 111.691 87.2187Z" fill="#0F1B2D"/>
<path d="M32.0994 119C34.9801 119 36.6467 117.213 36.6467 114.259C36.6467 111.318 34.9801 109.545 32.1964 109.545H29.0387V119H32.0994ZM30.4652 117.754V110.792H32.1087C34.1768 110.792 35.2433 112.029 35.2433 114.259C35.2433 116.498 34.1768 117.754 32.021 117.754H30.4652ZM41.3659 119.143C42.9124 119.143 44.0065 118.381 44.3204 117.227L43.0139 116.992C42.7646 117.661 42.1645 118.003 41.3797 118.003C40.1979 118.003 39.4039 117.237 39.3669 115.87H44.4081V115.381C44.4081 112.819 42.8754 111.817 41.2689 111.817C39.2931 111.817 37.9912 113.322 37.9912 115.501C37.9912 117.703 39.2746 119.143 41.3659 119.143ZM39.3715 114.836C39.4269 113.83 40.1563 112.957 41.2781 112.957C42.3492 112.957 43.0509 113.751 43.0555 114.836H39.3715ZM46.0504 119H47.3984V117.897H47.5138C47.7631 118.349 48.271 119.138 49.5636 119.138C51.2809 119.138 52.5273 117.763 52.5273 115.468C52.5273 113.169 51.2624 111.817 49.5497 111.817C48.234 111.817 47.7585 112.62 47.5138 113.059H47.4308V109.545H46.0504V119ZM47.4031 115.455C47.4031 113.973 48.0494 112.989 49.2543 112.989C50.5053 112.989 51.1332 114.047 51.1332 115.455C51.1332 116.876 50.4869 117.961 49.2543 117.961C48.0678 117.961 47.4031 116.946 47.4031 115.455ZM54.0773 119H55.4577V111.909H54.0773V119ZM54.7744 110.815C55.2499 110.815 55.6469 110.446 55.6469 109.993C55.6469 109.541 55.2499 109.167 54.7744 109.167C54.2943 109.167 53.9019 109.541 53.9019 109.993C53.9019 110.446 54.2943 110.815 54.7744 110.815ZM60.6246 111.909H59.1705V110.21H57.7901V111.909H56.7514V113.017H57.7901V117.204C57.7855 118.492 58.7688 119.115 59.8583 119.092C60.2969 119.088 60.5923 119.005 60.7539 118.945L60.5046 117.804C60.4123 117.823 60.2415 117.864 60.0199 117.864C59.5721 117.864 59.1705 117.717 59.1705 116.918V113.017H60.6246V111.909ZM68.5788 119.143C70.2546 119.143 71.3395 118.137 71.4918 116.756H70.1484C69.973 117.523 69.3775 117.975 68.5881 117.975C67.4201 117.975 66.6676 117.001 66.6676 115.455C66.6676 113.936 67.4339 112.98 68.5881 112.98C69.4652 112.98 70.0007 113.534 70.1484 114.199H71.4918C71.3441 112.768 70.1761 111.817 68.565 111.817C66.5661 111.817 65.2734 113.322 65.2734 115.487C65.2734 117.624 66.5199 119.143 68.5788 119.143ZM75.0315 119.157C76.2041 119.157 76.8643 118.561 77.1274 118.031H77.1828V119H78.5308V114.291C78.5308 112.228 76.9058 111.817 75.7794 111.817C74.496 111.817 73.3142 112.334 72.8525 113.626L74.1498 113.922C74.3529 113.419 74.8699 112.934 75.7979 112.934C76.6888 112.934 77.1459 113.4 77.1459 114.203V114.236C77.1459 114.739 76.6288 114.73 75.3547 114.877C74.0113 115.034 72.6356 115.385 72.6356 116.996C72.6356 118.391 73.6835 119.157 75.0315 119.157ZM75.3316 118.049C74.5514 118.049 73.9882 117.698 73.9882 117.015C73.9882 116.276 74.6437 116.013 75.4424 115.907C75.8902 115.847 76.952 115.727 77.1505 115.528V116.442C77.1505 117.283 76.4811 118.049 75.3316 118.049ZM80.3693 119H81.7496V114.67C81.7496 113.742 82.4652 113.072 83.4439 113.072C83.7301 113.072 84.0533 113.123 84.1641 113.156V111.835C84.0256 111.817 83.7532 111.803 83.5778 111.803C82.7468 111.803 82.0359 112.274 81.7773 113.036H81.7035V111.909H80.3693V119ZM87.7591 119.138C89.0518 119.138 89.5596 118.349 89.8089 117.897H89.9243V119H91.2723V109.545H89.892V113.059H89.8089C89.5596 112.62 89.0887 111.817 87.7684 111.817C86.0557 111.817 84.7954 113.169 84.7954 115.468C84.7954 117.763 86.0372 119.138 87.7591 119.138ZM88.0638 117.961C86.8312 117.961 86.1895 116.876 86.1895 115.455C86.1895 114.047 86.8174 112.989 88.0638 112.989C89.2687 112.989 89.915 113.973 89.915 115.455C89.915 116.946 89.2549 117.961 88.0638 117.961Z" fill="#545F7A"/>
<path d="M204.228 117H205.719L209.832 108.81V107.545H203.582V108.769H208.355V108.838L204.228 117ZM214.432 117.129C216.334 117.129 217.691 115.786 217.686 113.944C217.691 112.116 216.417 110.786 214.695 110.786C213.993 110.786 213.342 111.054 212.973 111.414H212.917L213.217 108.769H217.229V107.545H212.031L211.5 112.31L212.807 112.504C213.162 112.185 213.799 111.968 214.372 111.968C215.493 111.977 216.306 112.817 216.306 113.972C216.306 115.107 215.516 115.929 214.432 115.929C213.517 115.929 212.793 115.347 212.719 114.535H211.334C211.389 116.04 212.696 117.129 214.432 117.129ZM222.664 117.129C224.594 117.129 226.011 115.975 226.006 114.406C226.011 113.21 225.286 112.351 224.03 112.157V112.083C225.018 111.83 225.66 111.054 225.655 109.992C225.66 108.603 224.52 107.416 222.701 107.416C220.965 107.416 219.571 108.464 219.525 110.001H220.905C220.937 109.134 221.754 108.607 222.682 108.607C223.647 108.607 224.28 109.194 224.275 110.066C224.28 110.98 223.546 111.58 222.498 111.58H221.699V112.744H222.498C223.809 112.744 224.566 113.408 224.566 114.359C224.566 115.278 223.767 115.901 222.655 115.901C221.63 115.901 220.831 115.375 220.776 114.535H219.326C219.386 116.077 220.753 117.129 222.664 117.129ZM231.043 117.157C233.226 117.157 234.505 115.375 234.505 112.277C234.505 109.203 233.208 107.416 231.043 107.416C228.873 107.416 227.58 109.198 227.576 112.277C227.576 115.37 228.855 117.152 231.043 117.157ZM231.043 115.924C229.764 115.924 228.993 114.641 228.993 112.277C228.998 109.923 229.769 108.626 231.043 108.626C232.312 108.626 233.088 109.923 233.088 112.277C233.088 114.641 232.317 115.924 231.043 115.924Z" fill="white"/>
<circle cx="191.5" cy="111.5" r="1.5" fill="white"/>
<circle cx="184.5" cy="111.5" r="1.5" fill="white"/>
<circle cx="177.5" cy="111.5" r="1.5" fill="white"/>
<circle cx="170.5" cy="111.5" r="1.5" fill="white"/>
<defs>
<filter id="filter0_d" x="0" y="0" width="262" height="160" filterUnits="userSpaceOnUse" color-interpolation-filters="sRGB">
<feFlood flood-opacity="0" result="BackgroundImageFix"/>
<feColorMatrix in="SourceAlpha" type="matrix" values="0 0 0 0 0 0 0 0 0 0 0 0 0 0 0 0 0 0 127 0" result="hardAlpha"/>
<feOffset dy="6"/>
<feGaussianBlur stdDeviation="6"/>
<feColorMatrix type="matrix" values="0 0 0 0 0.167292 0 0 0 0 0.210375 0 0 0 0 0.275 0 0 0 0.1 0"/>
<feBlend mode="normal" in2="BackgroundImageFix" result="effect1_dropShadow"/>
<feBlend mode="normal" in="SourceGraphic" in2="effect1_dropShadow" result="shape"/>
</filter>
</defs>
</svg>
