<svg width="22" height="14" viewBox="0 0 22 14" fill="none" xmlns="http://www.w3.org/2000/svg">
<path d="M13.9414 1.46362H8.00647V12.2252H13.9414V1.46362Z" fill="#FF5F00"/>
<path d="M8.38332 6.84667C8.38222 5.8101 8.6149 4.78687 9.06375 3.85446C9.51259 2.92205 10.1658 2.1049 10.974 1.46491C9.97334 0.671466 8.77166 0.178073 7.50625 0.0411163C6.24085 -0.0958399 4.96279 0.129167 3.81813 0.69042C2.67347 1.25167 1.70841 2.12653 1.03323 3.215C0.35805 4.30347 0 5.56164 0 6.84572C0 8.12979 0.35805 9.38796 1.03323 10.4764C1.70841 11.5649 2.67347 12.4398 3.81813 13.001C4.96279 13.5623 6.24085 13.7873 7.50625 13.6503C8.77166 13.5134 9.97334 13.02 10.974 12.2265C10.1661 11.5867 9.51299 10.7699 9.06416 9.83783C8.61533 8.90578 8.38251 7.88292 8.38332 6.84667Z" fill="#EB001B"/>
<path d="M21.949 6.84538C21.9489 8.12955 21.5908 9.3878 20.9155 10.4763C20.2402 11.5648 19.275 12.4397 18.1302 13.0008C16.9854 13.562 15.7072 13.7869 14.4417 13.6497C13.1763 13.5126 11.9746 13.0189 10.974 12.2252C11.7816 11.5849 12.4345 10.7678 12.8834 9.8357C13.3324 8.90359 13.5657 7.88078 13.5657 6.84443C13.5657 5.80808 13.3324 4.78527 12.8834 3.85316C12.4345 2.92105 11.7816 2.10399 10.974 1.46362C11.9746 0.669934 13.1763 0.176301 14.4417 0.0391478C15.7072 -0.098005 16.9854 0.126857 18.1302 0.68803C19.275 1.2492 20.2402 2.12404 20.9155 3.21255C21.5908 4.30106 21.9489 5.55931 21.949 6.84348V6.84538Z" fill="#F79E1B"/>
</svg>
